<svg width="128" height="128" xmlns="http://www.w3.org/2000/svg" clip-rule="evenodd">

 <g>
  <title>background</title>
  <rect fill="none" id="canvas_background" height="402" width="582" y="-1" x="-1"/>
 </g>
 <g>
  <title>Layer 1</title>
  <rect fill="none" y="0" x="0.881" width="128" id="Mail" height="128"/>
  <path fill="#ffffff" id="svg_1" fill-rule="nonzero" d="m117.943,98.008c-2.481,2.386 -5.795,3.924 -9.389,3.991c-29.115,0.18 -58.232,0.18 -87.347,0c-7.208,-0.134 -13.687,-6.38 -13.825,-13.825c-0.121,-18.782 -0.121,-37.566 0,-56.348c0.134,-7.211 6.377,-13.686 13.825,-13.825c29.115,-0.181 58.232,-0.181 87.347,0c7.234,0.135 13.687,6.378 13.825,13.825c0.11,18.783 0.11,37.565 0,56.348c-0.051,2.779 -1.005,5.443 -2.584,7.679c0.065,0.531 -0.224,0.942 -0.524,1.343c-0.335,0.45 -0.808,0.742 -1.328,0.812zm-38.808,-36.473l-2.25,2.172c-6.686,6.379 -18.034,6.65 -25.004,-0.007l-0.491,-0.474l-35.533,33.006c1.554,1.074 3.41,1.73 5.399,1.767c29.083,0.18 58.166,0.18 87.249,0c2.211,-0.041 4.33,-0.875 6.034,-2.242l-35.404,-34.222zm-65.894,-35.184c-1.129,1.58 -1.822,3.483 -1.86,5.525c-0.12,18.749 -0.12,37.499 0,56.248c0.035,1.887 0.648,3.702 1.675,5.251l35.454,-32.933l-35.269,-34.091zm102.872,-0.517l-34.099,32.921l35.117,33.944c0.763,-1.366 1.218,-2.922 1.249,-4.574c0.109,-18.75 0.109,-37.5 0,-56.25c-0.042,-2.221 -0.89,-4.34 -2.267,-6.041zm-3.074,-2.592c-1.364,-0.76 -2.909,-1.211 -4.534,-1.241c-29.039,-0.18 -58.079,-0.001 -87.118,-0.001c-1.879,0.012 -3.691,0.596 -5.245,1.593c12.875,12.456 25.688,24.976 38.643,37.349c5.215,4.854 13.956,5.006 19.33,-0.121l38.924,-37.579z"/>
 </g>
</svg>