<svg width="512" height="512" xmlns="http://www.w3.org/2000/svg">

 <g>
  <title>background</title>
  <rect fill="none" id="canvas_background" height="402" width="582" y="-1" x="-1"/>
 </g>
 <g>
  <title>Layer 1</title>
  <path fill="#ffffff" id="XMLID_826_" d="m256,506c-66.8,0 -129.6,-26 -176.8,-73.2c-47.2,-47.2 -73.2,-110 -73.2,-176.8c0,-66.8 26,-129.6 73.2,-176.8c47.2,-47.2 110,-73.2 176.8,-73.2c66.8,0 129.6,26 176.8,73.2c47.2,47.2 73.2,110 73.2,176.8c0,66.8 -26,129.6 -73.2,176.8c-47.2,47.2 -110,73.2 -176.8,73.2zm0,-490.2c-132.4,0 -240.2,107.8 -240.2,240.2c0,132.4 107.8,240.2 240.2,240.2c132.4,0 240.2,-107.7 240.2,-240.2c0,-132.4 -107.8,-240.2 -240.2,-240.2zm0,353.2c-19.9,0 -36.1,-16.2 -36.1,-36.1c0,-19.9 16.2,-36.1 36.1,-36.1c19.9,0 36.1,16.2 36.1,36.1c0,19.9 -16.2,36.1 -36.1,36.1zm0,-62.4c-14.5,0 -26.3,11.8 -26.3,26.3c0,14.5 11.8,26.3 26.3,26.3c14.5,0 26.3,-11.8 26.3,-26.3c0,-14.5 -11.8,-26.3 -26.3,-26.3zm-82.5,-14.5c-19.9,0 -36.1,-16.2 -36.1,-36.1c0,-19.9 16.2,-36.1 36.1,-36.1s36.1,16.2 36.1,36.1c0,19.9 -16.2,36.1 -36.1,36.1zm0,-62.4c-14.5,0 -26.3,11.8 -26.3,26.3c0,14.5 11.8,26.3 26.3,26.3c14.5,0 26.3,-11.8 26.3,-26.3c0,-14.5 -11.8,-26.3 -26.3,-26.3zm168.1,59.3c-19.9,0 -36.1,-16.2 -36.1,-36.1s16.2,-36.1 36.1,-36.1c19.9,0 36.1,16.2 36.1,36.1s-16.2,36.1 -36.1,36.1zm0,-62.5c-14.5,0 -26.3,11.8 -26.3,26.3c0,14.5 11.8,26.3 26.3,26.3c14.5,0 26.3,-11.8 26.3,-26.3c0,-14.5 -11.8,-26.3 -26.3,-26.3zm-85.6,-15.3c-19.9,0 -36.1,-16.2 -36.1,-36.1c0,-19.9 16.2,-36.1 36.1,-36.1c19.9,0 36.1,16.2 36.1,36.1c0,19.9 -16.2,36.1 -36.1,36.1zm0,-62.5c-14.5,0 -26.3,11.8 -26.3,26.3c0,14.5 11.8,26.3 26.3,26.3c14.5,0 26.3,-11.8 26.3,-26.3c0,-14.5 -11.8,-26.3 -26.3,-26.3z"/>
  <path fill="#ffffff" id="XMLID_808_" d="m256,438.7c-100.8,0 -182.7,-82 -182.7,-182.7c0,-100.8 82,-182.7 182.7,-182.7c100.8,0 182.7,82 182.7,182.7c0,100.7 -81.9,182.7 -182.7,182.7zm0,-355.6c-95.3,0 -172.9,77.6 -172.9,172.9c0,95.3 77.6,172.9 172.9,172.9c95.3,0 172.9,-77.6 172.9,-172.9c0,-95.3 -77.6,-172.9 -172.9,-172.9zm0,285.9c-19.9,0 -36.1,-16.2 -36.1,-36.1c0,-19.9 16.2,-36.1 36.1,-36.1c19.9,0 36.1,16.2 36.1,36.1c0,19.9 -16.2,36.1 -36.1,36.1zm0,-62.4c-14.5,0 -26.3,11.8 -26.3,26.3c0,14.5 11.8,26.3 26.3,26.3c14.5,0 26.3,-11.8 26.3,-26.3c0,-14.5 -11.8,-26.3 -26.3,-26.3zm-82.5,-14.5c-19.9,0 -36.1,-16.2 -36.1,-36.1c0,-19.9 16.2,-36.1 36.1,-36.1s36.1,16.2 36.1,36.1c0,19.9 -16.2,36.1 -36.1,36.1zm0,-62.4c-14.5,0 -26.3,11.8 -26.3,26.3c0,14.5 11.8,26.3 26.3,26.3c14.5,0 26.3,-11.8 26.3,-26.3c0,-14.5 -11.8,-26.3 -26.3,-26.3zm168.1,59.3c-19.9,0 -36.1,-16.2 -36.1,-36.1s16.2,-36.1 36.1,-36.1c19.9,0 36.1,16.2 36.1,36.1s-16.2,36.1 -36.1,36.1zm0,-62.5c-14.5,0 -26.3,11.8 -26.3,26.3s11.8,26.3 26.3,26.3c14.5,0 26.3,-11.8 26.3,-26.3s-11.8,-26.3 -26.3,-26.3zm-85.6,-15.3c-19.9,0 -36.1,-16.2 -36.1,-36.1c0,-19.9 16.2,-36.1 36.1,-36.1c19.9,0 36.1,16.2 36.1,36.1c0,19.9 -16.2,36.1 -36.1,36.1zm0,-62.5c-14.5,0 -26.3,11.8 -26.3,26.3c0,14.5 11.8,26.3 26.3,26.3c14.5,0 26.3,-11.8 26.3,-26.3c0,-14.5 -11.8,-26.3 -26.3,-26.3z"/>
 </g>
</svg>