<svg width="512" height="512" xmlns="http://www.w3.org/2000/svg">
 <title/>

 <g>
  <title>background</title>
  <rect fill="none" id="canvas_background" height="402" width="582" y="-1" x="-1"/>
 </g>
 <g>
  <title>Layer 1</title>
  <path fill="#ffffff" id="svg_1" d="m395.49,450l-269.69,0a15,15 0 0 1 -15,-15l0,-238a15,15 0 0 1 30,0l0,223l239.69,0l0,-223a15,15 0 1 1 30,0l0,238a15,15 0 0 1 -15,15z"/>
  <path fill="#ffffff" id="svg_2" d="m445.11,261.65a15,15 0 0 1 -10.61,-4.39l-173.86,-173.86l-173.86,173.86a15,15 0 0 1 -21.21,-21.21l184.43,-184.47a15,15 0 0 1 21.21,0l184.51,184.47a15,15 0 0 1 -10.61,25.6z"/>
  <path fill="#ffffff" id="svg_3" d="m304.15,450l-87,0a15,15 0 0 1 -15,-15l0,-129.52a15,15 0 0 1 15,-15l87,0a15,15 0 0 1 15,15l0,129.52a15,15 0 0 1 -15,15zm-72,-30l57,0l0,-99.52l-57,0l0,99.52z"/>
 </g>
</svg>